Coordinates
version=1
nRows=12
nColumns=24
inDegrees=yes

Units are S.I. units (second, meters, Newtons, ...)
Angles are in degrees.

endheader
time	pelvis_tilt	pelvis_list	pelvis_rotation	pelvis_tx	pelvis_ty	pelvis_tz	hip_flexion_r	hip_adduction_r	hip_rotation_r	knee_angle_r	ankle_angle_r	subtalar_angle_r	mtp_angle_r	hip_flexion_l	hip_adduction_l	hip_rotation_l	knee_angle_l	ankle_angle_l	subtalar_angle_l	mtp_angle_l	lumbar_extension	lumbar_bending	lumbar_rotation
      1.50400000	     -5.27742529	      7.45230656	     -2.21398378	      0.38832709	      0.89148580	      0.26503516	     19.71079378	    -11.23762862	     -7.93267999	    -71.14632886	      9.79258497	      9.11354635	     11.35012064	     18.97934054	     11.06808610	     -4.73189363	    -22.91466849	     10.83812621	     -7.59536652	      1.16482876	     -0.94081879	    -12.38314638	      5.38630303
      1.50816667	     -5.20167340	      7.28688299	     -2.05366851	      0.39323666	      0.89287026	      0.26473180	     20.26191811	    -11.02462937	     -8.03977023	    -70.68795958	     10.22780855	      9.00068891	     11.23616945	     18.25294305	     11.00039430	     -4.44799307	    -22.37727822	     10.84302192	     -7.54166463	      1.18811184	     -1.06862900	    -12.19050732	      5.05780358
      1.51233333	     -5.13884069	      7.11226192	     -1.87799397	      0.39809699	      0.89419784	      0.26441718	     20.81580950	    -10.80361805	     -8.16074019	    -70.18318551	     10.66979671	      8.85006181	     11.16226504	     17.55643570	     10.91744172	     -4.16104038	    -21.86633731	     10.82935388	     -7.46302895	      1.20234774	     -1.19528257	    -11.98980366	      4.80917067
      1.51650000	     -5.03372540	      6.94154238	     -1.70019499	      0.40302349	      0.89559223	      0.26406758	     21.29548778	    -10.60515495	     -8.30435825	    -69.60749581	     10.99621962	      8.71286284	     11.03905361	     16.78024419	     10.84733128	     -3.83414721	    -21.28776731	     10.83151749	     -7.46301640	      1.22080712	     -1.34235639	    -11.78232612	      4.39156582
      1.52066667	     -4.94428879	      6.76824805	     -1.50705626	      0.40790607	      0.89692339	      0.26371060	     21.78019653	    -10.40496777	     -8.45698252	    -68.98668817	     11.34111665	      8.53685339	     10.89618205	     16.03380122	     10.76925826	     -3.49597624	    -20.72797070	     10.80335241	     -7.45451918	      1.23842851	     -1.48661210	    -11.58091455	      4.01766913
      1.52483333	     -4.86262565	      6.58039100	     -1.30035080	      0.41275019	      0.89820727	      0.26335210	     22.25644902	    -10.18846043	     -8.62002486	    -68.31299042	     11.68047673	      8.31725032	     10.80492785	     15.31348490	     10.66558801	     -3.16755532	    -20.20032490	     10.77417683	     -7.38955554	      1.24874149	     -1.63957513	    -11.36163774	      3.75291838
      1.52900000	     -4.74919112	      6.39422861	     -1.09183940	      0.41762590	      0.89952230	      0.26297994	     22.67544263	     -9.98510209	     -8.80073296	    -67.57638105	     11.93836735	      8.07631113	     10.68992521	     14.53902004	     10.56517284	     -2.81183980	    -19.63146510	     10.75256449	     -7.38374566	      1.25861394	     -1.81433307	    -11.13906641	      3.37391330
      1.53316667	     -4.63578028	      6.22595021	     -0.87402681	      0.42252504	      0.90078762	      0.26255704	     23.08005958	     -9.82046950	     -8.99966856	    -66.80237560	     12.17150885	      7.82018102	     10.51970234	     13.75823550	     10.48406281	     -2.45254363	    -19.04463367	     10.71908639	     -7.42429504	      1.26997307	     -1.96032968	    -10.91338815	      2.92721402
      1.53733333	     -4.52894041	      6.04018241	     -0.64965669	      0.42737459	      0.90200920	      0.26215869	     23.47615716	     -9.62826115	     -9.19502401	    -65.97372278	     12.38440691	      7.51665015	     10.35427043	     12.99835268	     10.37244449	     -2.08726849	    -18.47845300	     10.68347322	     -7.42558373	      1.27922247	     -2.12499050	    -10.68662545	      2.56461756
      1.54150000	     -4.42686879	      5.83989634	     -0.40815745	      0.43220441	      0.90318908	      0.26176415	     23.85227068	     -9.42052220	     -9.40733324	    -65.08511394	     12.58385677	      7.17601744	     10.23260288	     12.26133277	     10.23513229	     -1.72876508	    -17.94548878	     10.63841693	     -7.38533772	      1.28511501	     -2.29326401	    -10.46666024	      2.26251046
      1.54566667	     -4.30556504	      5.66742426	     -0.18543551	      0.43706975	      0.90433764	      0.26133797	     24.20516910	     -9.25678923	     -9.61262369	    -64.17002618	     12.70512916	      6.81149531	     10.06095405	     11.47851619	     10.12744961	     -1.36587214	    -17.35559825	     10.61888251	     -7.41799993	      1.29141350	     -2.45979622	    -10.21944633	      1.83210283
      1.54983333	     -4.21928755	      5.48851963	      0.08085710	      0.44189754	      0.90539443	      0.26086255	     24.56879863	     -9.10237037	     -9.85704191	    -63.20828531	     12.87041381	      6.50208432	      9.51371044	     10.74514108	     10.01844927	     -0.91382871	    -16.78178883	     10.51688584	     -7.55590816	      1.30751450	     -2.59638123	     -9.99120136	      1.32190804
